<svg viewBox="0 0 330 200" xmlns="http://www.w3.org/2000/svg"><g><g><g><g><g><line x1="41.171875" y1="177" x2="36.171875" y2="177" style="visibility: inherit;" fill="rgb(0, 0, 0)" stroke="rgb(204, 204, 204)" stroke-width="1px"></line><line x1="41.171875" y1="160.9090909090909" x2="36.171875" y2="160.9090909090909" style="visibility: inherit;" fill="rgb(0, 0, 0)" stroke="rgb(204, 204, 204)" stroke-width="1px"></line><line x1="41.171875" y1="144.8181818181818" x2="36.171875" y2="144.8181818181818" style="visibility: inherit;" fill="rgb(0, 0, 0)" stroke="rgb(204, 204, 204)" stroke-width="1px"></line><line x1="41.171875" y1="128.72727272727272" x2="36.171875" y2="128.72727272727272" style="visibility: inherit;" fill="rgb(0, 0, 0)" stroke="rgb(204, 204, 204)" stroke-width="1px"></line><line x1="41.171875" y1="112.63636363636365" x2="36.171875" y2="112.63636363636365" style="visibility: inherit;" fill="rgb(0, 0, 0)" stroke="rgb(204, 204, 204)" stroke-width="1px"></line><line x1="41.171875" y1="96.54545454545453" x2="36.171875" y2="96.54545454545453" style="visibility: inherit;" fill="rgb(0, 0, 0)" stroke="rgb(204, 204, 204)" stroke-width="1px"></line><line x1="41.171875" y1="80.45454545454547" x2="36.171875" y2="80.45454545454547" style="visibility: inherit;" fill="rgb(0, 0, 0)" stroke="rgb(204, 204, 204)" stroke-width="1px"></line><line x1="41.171875" y1="64.36363636363636" x2="36.171875" y2="64.36363636363636" style="visibility: inherit;" fill="rgb(0, 0, 0)" stroke="rgb(204, 204, 204)" stroke-width="1px"></line><line x1="41.171875" y1="48.27272727272725" x2="36.171875" y2="48.27272727272725" style="visibility: inherit;" fill="rgb(0, 0, 0)" stroke="rgb(204, 204, 204)" stroke-width="1px"></line><line x1="41.171875" y1="32.18181818181817" x2="36.171875" y2="32.18181818181817" style="visibility: inherit;" fill="rgb(0, 0, 0)" stroke="rgb(204, 204, 204)" stroke-width="1px"></line><line x1="41.171875" y1="16.090909090909076" x2="36.171875" y2="16.090909090909076" style="visibility: inherit;" fill="rgb(0, 0, 0)" stroke="rgb(204, 204, 204)" stroke-width="1px"></line><line x1="41.171875" y1="0" x2="36.171875" y2="0" style="visibility: inherit;" fill="rgb(0, 0, 0)" stroke="rgb(204, 204, 204)" stroke-width="1px"></line></g><g transform="translate(31.171875, 0)"><text x="0" y="177" dx="0em" dy="0.3em" style="text-anchor: end; visibility: hidden; font-family: Roboto, sans-serif; font-size: 12px; font-weight: 200;" fill="rgb(255, 255, 255)" stroke="none" stroke-width="1px">0.8</text><text x="0" y="160.9090909090909" dx="0em" dy="0.3em" style="text-anchor: end; visibility: inherit; font-family: Roboto, sans-serif; font-size: 12px; font-weight: 200;" fill="rgb(255, 255, 255)" stroke="none" stroke-width="1px">0.9</text><text x="0" y="144.8181818181818" dx="0em" dy="0.3em" style="text-anchor: end; visibility: hidden; font-family: Roboto, sans-serif; font-size: 12px; font-weight: 200;" fill="rgb(255, 255, 255)" stroke="none" stroke-width="1px">1</text><text x="0" y="128.72727272727272" dx="0em" dy="0.3em" style="text-anchor: end; visibility: inherit; font-family: Roboto, sans-serif; font-size: 12px; font-weight: 200;" fill="rgb(255, 255, 255)" stroke="none" stroke-width="1px">1.1</text><text x="0" y="112.63636363636365" dx="0em" dy="0.3em" style="text-anchor: end; visibility: hidden; font-family: Roboto, sans-serif; font-size: 12px; font-weight: 200;" fill="rgb(255, 255, 255)" stroke="none" stroke-width="1px">1.2</text><text x="0" y="96.54545454545453" dx="0em" dy="0.3em" style="text-anchor: end; visibility: inherit; font-family: Roboto, sans-serif; font-size: 12px; font-weight: 200;" fill="rgb(255, 255, 255)" stroke="none" stroke-width="1px">1.3</text><text x="0" y="80.45454545454547" dx="0em" dy="0.3em" style="text-anchor: end; visibility: hidden; font-family: Roboto, sans-serif; font-size: 12px; font-weight: 200;" fill="rgb(255, 255, 255)" stroke="none" stroke-width="1px">1.4</text><text x="0" y="64.36363636363636" dx="0em" dy="0.3em" style="text-anchor: end; visibility: inherit; font-family: Roboto, sans-serif; font-size: 12px; font-weight: 200;" fill="rgb(255, 255, 255)" stroke="none" stroke-width="1px">1.5</text><text x="0" y="48.27272727272725" dx="0em" dy="0.3em" style="text-anchor: end; visibility: hidden; font-family: Roboto, sans-serif; font-size: 12px; font-weight: 200;" fill="rgb(255, 255, 255)" stroke="none" stroke-width="1px">1.6</text><text x="0" y="32.18181818181817" dx="0em" dy="0.3em" style="text-anchor: end; visibility: inherit; font-family: Roboto, sans-serif; font-size: 12px; font-weight: 200;" fill="rgb(255, 255, 255)" stroke="none" stroke-width="1px">1.7</text><text x="0" y="16.090909090909076" dx="0em" dy="0.3em" style="text-anchor: end; visibility: hidden; font-family: Roboto, sans-serif; font-size: 12px; font-weight: 200;" fill="rgb(255, 255, 255)" stroke="none" stroke-width="1px">1.8</text><text x="0" y="0" dx="0em" dy="0.3em" style="text-anchor: end; visibility: hidden; font-family: Roboto, sans-serif; font-size: 12px; font-weight: 200;" fill="rgb(255, 255, 255)" stroke="none" stroke-width="1px">1.9</text></g><line x1="41.171875" y1="0" x2="41.171875" y2="177" fill="rgb(0, 0, 0)" stroke="rgb(204, 204, 204)" stroke-width="1px"></line></g></g><g transform="translate(41, 0)" clip-path="url(#clip_0)"><clipPath id="clip_0"><rect width="288" height="177"></rect></clipPath><g><g><g><line x1="0" y1="0" x2="0" y2="177" fill="rgb(0, 0, 0)" stroke="rgb(189, 189, 189)" stroke-width="1px" opacity="0.25"></line><line x1="28.8828125" y1="0" x2="28.8828125" y2="177" fill="rgb(0, 0, 0)" stroke="rgb(189, 189, 189)" stroke-width="1px" opacity="0.25"></line><line x1="57.765625" y1="0" x2="57.765625" y2="177" fill="rgb(0, 0, 0)" stroke="rgb(189, 189, 189)" stroke-width="1px" opacity="0.25"></line><line x1="86.6484375" y1="0" x2="86.6484375" y2="177" fill="rgb(0, 0, 0)" stroke="rgb(189, 189, 189)" stroke-width="1px" opacity="0.25"></line><line x1="115.53125" y1="0" x2="115.53125" y2="177" fill="rgb(0, 0, 0)" stroke="rgb(189, 189, 189)" stroke-width="1px" opacity="0.25"></line><line x1="144.4140625" y1="0" x2="144.4140625" y2="177" fill="rgb(0, 0, 0)" stroke="rgb(189, 189, 189)" stroke-width="1px" opacity="0.25"></line><line x1="173.296875" y1="0" x2="173.296875" y2="177" fill="rgb(0, 0, 0)" stroke="rgb(189, 189, 189)" stroke-width="1px" opacity="0.25"></line><line x1="202.1796875" y1="0" x2="202.1796875" y2="177" fill="rgb(0, 0, 0)" stroke="rgb(189, 189, 189)" stroke-width="1px" opacity="0.25"></line><line x1="231.0625" y1="0" x2="231.0625" y2="177" fill="rgb(0, 0, 0)" stroke="rgb(189, 189, 189)" stroke-width="1px" opacity="0.25"></line><line x1="259.9453125" y1="0" x2="259.9453125" y2="177" fill="rgb(0, 0, 0)" stroke="rgb(189, 189, 189)" stroke-width="1px" opacity="0.25"></line><line x1="288.828125" y1="0" x2="288.828125" y2="177" fill="rgb(0, 0, 0)" stroke="rgb(189, 189, 189)" stroke-width="1px" opacity="0.25"></line></g><g><line x1="0" y1="177" x2="288.828125" y2="177" fill="rgb(0, 0, 0)" stroke="rgb(189, 189, 189)" stroke-width="1px" opacity="0.25"></line><line x1="0" y1="160.9090909090909" x2="288.828125" y2="160.9090909090909" fill="rgb(0, 0, 0)" stroke="rgb(189, 189, 189)" stroke-width="1px" opacity="0.25"></line><line x1="0" y1="144.8181818181818" x2="288.828125" y2="144.8181818181818" fill="rgb(0, 0, 0)" stroke="rgb(189, 189, 189)" stroke-width="1px" opacity="0.25"></line><line x1="0" y1="128.72727272727272" x2="288.828125" y2="128.72727272727272" fill="rgb(0, 0, 0)" stroke="rgb(189, 189, 189)" stroke-width="1px" opacity="0.25"></line><line x1="0" y1="112.63636363636365" x2="288.828125" y2="112.63636363636365" fill="rgb(0, 0, 0)" stroke="rgb(189, 189, 189)" stroke-width="1px" opacity="0.25"></line><line x1="0" y1="96.54545454545453" x2="288.828125" y2="96.54545454545453" fill="rgb(0, 0, 0)" stroke="rgb(189, 189, 189)" stroke-width="1px" opacity="0.25"></line><line x1="0" y1="80.45454545454547" x2="288.828125" y2="80.45454545454547" fill="rgb(0, 0, 0)" stroke="rgb(189, 189, 189)" stroke-width="1px" opacity="0.25"></line><line x1="0" y1="64.36363636363636" x2="288.828125" y2="64.36363636363636" fill="rgb(0, 0, 0)" stroke="rgb(189, 189, 189)" stroke-width="1px" opacity="0.25"></line><line x1="0" y1="48.27272727272725" x2="288.828125" y2="48.27272727272725" fill="rgb(0, 0, 0)" stroke="rgb(189, 189, 189)" stroke-width="1px" opacity="0.25"></line><line x1="0" y1="32.18181818181817" x2="288.828125" y2="32.18181818181817" fill="rgb(0, 0, 0)" stroke="rgb(189, 189, 189)" stroke-width="1px" opacity="0.25"></line><line x1="0" y1="16.090909090909076" x2="288.828125" y2="16.090909090909076" fill="rgb(0, 0, 0)" stroke="rgb(189, 189, 189)" stroke-width="1px" opacity="0.25"></line><line x1="0" y1="0" x2="288.828125" y2="0" fill="rgb(0, 0, 0)" stroke="rgb(189, 189, 189)" stroke-width="1px" opacity="0.25"></line></g></g></g><g><g><line x1="0" y1="305.72727272727275" x2="288.828125" y2="305.72727272727275" fill="rgb(0, 0, 0)" stroke="rgb(153, 153, 153)" stroke-width="1.5px"></line></g></g><g><g><line x1="28.8828125" y1="0" x2="28.8828125" y2="177" fill="rgb(0, 0, 0)" stroke="rgb(153, 153, 153)" stroke-width="1.5px"></line></g></g><g><g><g><g><g><path stroke="rgb(0, 119, 187)" stroke-width="2px" d="M30.326953125,13.00144828449594L30.326953125,16.79889997568996L31.77109375,65.24862976507706L33.215234375,80.96944791620427L34.659375,83.43136271563444L36.103515625,91.76645565032959L37.54765625,96.20755460045554L38.991796875000006,100.19809087839992L40.4359375,101.5175533728166L41.880078125,106.13564333048733L43.32421875,104.52655395594509L44.768359375,108.25963133031672L46.2125,112.66854312203147L47.656640625,112.16971889409152L49.100781250000004,115.93500260873273L50.544921875,114.84081185947765L51.989062499999996,113.55353652347218L53.433203125,117.10964207215741L54.87734375,119.07273264364764L56.321484375000004,121.50246028466657L57.765625,122.09782680598173L59.209765624999996,122.08173322677612L60.65390625,123.94828150489114L62.098046875,125.54127730022778L63.5421875,125.13899536566302L64.986328125,125.39645426923579L66.43046875,128.55027788335627L67.87460937499999,127.76182677529074L69.31875,130.2237223928625L70.762890625,127.90663062442432L72.20703125,130.85127607258886L73.651171875,131.92935406077993L75.0953125,131.54318488727915L76.53945312500001,134.64872776378286L77.98359375000001,134.31082014604047L79.427734375,132.9752640724182L80.871875,135.51762758601797L82.31601562499999,136.38654659011146L83.76015625,136.88537081805143L85.204296875,135.74291851303795L86.6484375,137.94735522703692L88.092578125,139.73345479098234L89.53671875,136.70836062864825L90.980859375,139.05763955549762L92.425,140.9563558101654L93.869140625,139.81390350515193L95.31328125,140.26444699547508L96.757421875,140.07136240872472L98.20156250000001,141.71263894167814L99.645703125,142.48499647053808L101.08984375,142.74245537411082L102.53398437499999,143.86881409991872L103.97812499999999,143.1447181268172L105.422265625,145.59054893797094L106.86640625,145.30091246691617L108.310546875,142.54937078736046L109.7546875,144.35154474865305L111.198828125,144.59291007302025L112.64296875000001,148.64782066778704L114.08710937500001,145.13999585671857L115.53125,148.59954952109945L116.975390625,149.74200182611293L118.41953124999999,145.68709123134613L119.863671875,146.9100018414584L121.3078125,147.9880894205787L122.751953125,146.49163591861725L124.19609375,152.25217818130147L125.640234375,149.32363590327176L127.084375,149.46845893426374L128.528515625,151.62463409250432L129.97265625,150.27300362153485L131.41679687500002,151.36718477986076L132.8609375,151.41545592654836L134.305078125,151.56026936661112L135.74921874999998,151.60855010422796L137.193359375,152.60617937824944L138.6375,155.30944991111755L140.081640625,149.48454292254016L141.52578125,154.9876358725808L142.969921875,151.41545592654836L144.4140625,155.19681403853676L145.858203125,151.35109120065516L147.30234375,154.48882123557004L148.746484375,153.44291122393176L150.190625,154.55318596146324L151.634765625,156.0013683167371L153.07890625000002,154.875L154.523046875,154.24745591120288L155.96718750000002,155.64736711978912L157.411328125,156.87026813897222L158.85546875,155.51863766800273L160.29960937500002,156.56454767964104L161.74375,158.12536590749568L163.187890625,158.7368164170872L164.63203124999998,156.0657234517011L166.076171875,157.22426933592016L167.5203125,158.51154467192563L168.96445312499998,156.950726444071L170.40859375,157.32082122022456L171.85273437499998,157.48172823949295L173.296875,158.59200297702444L174.741015625,158.8977234363556L176.18515625,157.65872883796692L177.629296875,160.42636409672826L179.0734375,159.18735990741035L180.517578125,160.00799817388707L181.96171875,159.46091239018875L183.405859375,161.50445167584854L184.85,160.58727111599663L186.294140625,159.0747240348296L187.73828125,159.81491358713672L189.18242187500002,159.31608935919675L190.6265625,159.8470911546187L192.07070312500002,163.61236527833074L193.51484375,161.64927470684052L194.958984375,159.8631847338243L196.40312500000002,160.13672762567347L197.847265625,163.91809532859108L199.29140625,161.42400296167895L200.73554687499998,162.08372461795807L202.1796875,164.28818051381546L203.623828125,162.823904579336L205.06796874999998,160.79645887288183L206.512109375,161.53663883425972L207.95624999999998,162.8882693052292L209.400390625,164.06290876865387L210.84453125,162.7273622859608L212.288671875,164.11117991534147L213.7328125,161.21481520479375L215.176953125,163.09745706211436L216.62109375,164.15945106202906L218.065234375,161.71363943273371L219.509375,164.64218171076342L220.953515625,164.78700474175542L222.39765625,163.37099995396355L223.841796875,162.59863283417442L225.28593750000002,164.30427409302104L226.730078125,165.17318350618535L228.17421875000002,165.44672639803454L229.618359375,165.23754823207855L231.0625,163.21009293469518L232.50664062500002,164.30427409302104L233.95078125,165.96163461425087L235.394921875,162.45381939411163L236.83906249999998,166.15472879193047L238.283203125,165.44672639803454L239.72734375,165.49499754472214L241.17148437499998,164.09508633613586L242.615625,165.59154942902654L244.05976562499998,166.766179301522L245.50390625,164.19163822044027L246.948046875,166.83054402741521L248.3921875,164.9318181818182L249.836328125,166.7179081548344L251.28046875,163.5801781199195L252.724609375,166.95927347920158L254.16875,165.20536107366735L255.612890625,166.63744984973562L257.05703125,166.8466376066208L258.501171875,165.36626809293574L259.9453125,165.5110911239277L261.389453125,165.6719981431961L262.83359375000003,168.47182056036863L264.277734375,166.41217810457402L265.721875,166.42827168377966L267.166015625,164.9961829077114L268.61015625,167.23281637105077L270.05429687500003,166.95927347920158L271.49843749999997,166.7179081548344L272.942578125,163.51581339402634L274.38671875,166.7822728807276L275.830859375,167.0397317843004L277.275,165.06054763360459L278.71914062499997,167.02363820509478" style="fill: none;" fill="none"></path></g></g></g></g></g></g><g transform="translate(41, 177)" clip-path="url(#clip_1)"><clipPath id="clip_1"><rect width="288" height="23"></rect></clipPath><g><g><line x1="0" y1="0" x2="0" y2="5" style="visibility: inherit;" fill="rgb(0, 0, 0)" stroke="rgb(204, 204, 204)" stroke-width="1px"></line><line x1="28.8828125" y1="0" x2="28.8828125" y2="5" style="visibility: inherit;" fill="rgb(0, 0, 0)" stroke="rgb(204, 204, 204)" stroke-width="1px"></line><line x1="57.765625" y1="0" x2="57.765625" y2="5" style="visibility: inherit;" fill="rgb(0, 0, 0)" stroke="rgb(204, 204, 204)" stroke-width="1px"></line><line x1="86.6484375" y1="0" x2="86.6484375" y2="5" style="visibility: inherit;" fill="rgb(0, 0, 0)" stroke="rgb(204, 204, 204)" stroke-width="1px"></line><line x1="115.53125" y1="0" x2="115.53125" y2="5" style="visibility: inherit;" fill="rgb(0, 0, 0)" stroke="rgb(204, 204, 204)" stroke-width="1px"></line><line x1="144.4140625" y1="0" x2="144.4140625" y2="5" style="visibility: inherit;" fill="rgb(0, 0, 0)" stroke="rgb(204, 204, 204)" stroke-width="1px"></line><line x1="173.296875" y1="0" x2="173.296875" y2="5" style="visibility: inherit;" fill="rgb(0, 0, 0)" stroke="rgb(204, 204, 204)" stroke-width="1px"></line><line x1="202.1796875" y1="0" x2="202.1796875" y2="5" style="visibility: inherit;" fill="rgb(0, 0, 0)" stroke="rgb(204, 204, 204)" stroke-width="1px"></line><line x1="231.0625" y1="0" x2="231.0625" y2="5" style="visibility: inherit;" fill="rgb(0, 0, 0)" stroke="rgb(204, 204, 204)" stroke-width="1px"></line><line x1="259.9453125" y1="0" x2="259.9453125" y2="5" style="visibility: inherit;" fill="rgb(0, 0, 0)" stroke="rgb(204, 204, 204)" stroke-width="1px"></line><line x1="288.828125" y1="0" x2="288.828125" y2="5" style="visibility: inherit;" fill="rgb(0, 0, 0)" stroke="rgb(204, 204, 204)" stroke-width="1px"></line></g><g transform="translate(0, 8)"><text x="0" y="0" dx="0em" dy="0.95em" style="text-anchor: middle; visibility: hidden; font-family: Roboto, sans-serif; font-size: 12px; font-weight: 200;" fill="rgb(255, 255, 255)" stroke="none" stroke-width="1px">-10k</text><text x="28.8828125" y="0" dx="0em" dy="0.95em" style="text-anchor: middle; visibility: inherit; font-family: Roboto, sans-serif; font-size: 12px; font-weight: 200;" fill="rgb(255, 255, 255)" stroke="none" stroke-width="1px">0</text><text x="57.765625" y="0" dx="0em" dy="0.95em" style="text-anchor: middle; visibility: inherit; font-family: Roboto, sans-serif; font-size: 12px; font-weight: 200;" fill="rgb(255, 255, 255)" stroke="none" stroke-width="1px">10k</text><text x="86.6484375" y="0" dx="0em" dy="0.95em" style="text-anchor: middle; visibility: inherit; font-family: Roboto, sans-serif; font-size: 12px; font-weight: 200;" fill="rgb(255, 255, 255)" stroke="none" stroke-width="1px">20k</text><text x="115.53125" y="0" dx="0em" dy="0.95em" style="text-anchor: middle; visibility: inherit; font-family: Roboto, sans-serif; font-size: 12px; font-weight: 200;" fill="rgb(255, 255, 255)" stroke="none" stroke-width="1px">30k</text><text x="144.4140625" y="0" dx="0em" dy="0.95em" style="text-anchor: middle; visibility: inherit; font-family: Roboto, sans-serif; font-size: 12px; font-weight: 200;" fill="rgb(255, 255, 255)" stroke="none" stroke-width="1px">40k</text><text x="173.296875" y="0" dx="0em" dy="0.95em" style="text-anchor: middle; visibility: inherit; font-family: Roboto, sans-serif; font-size: 12px; font-weight: 200;" fill="rgb(255, 255, 255)" stroke="none" stroke-width="1px">50k</text><text x="202.1796875" y="0" dx="0em" dy="0.95em" style="text-anchor: middle; visibility: inherit; font-family: Roboto, sans-serif; font-size: 12px; font-weight: 200;" fill="rgb(255, 255, 255)" stroke="none" stroke-width="1px">60k</text><text x="231.0625" y="0" dx="0em" dy="0.95em" style="text-anchor: middle; visibility: inherit; font-family: Roboto, sans-serif; font-size: 12px; font-weight: 200;" fill="rgb(255, 255, 255)" stroke="none" stroke-width="1px">70k</text><text x="259.9453125" y="0" dx="0em" dy="0.95em" style="text-anchor: middle; visibility: inherit; font-family: Roboto, sans-serif; font-size: 12px; font-weight: 200;" fill="rgb(255, 255, 255)" stroke="none" stroke-width="1px">80k</text><text x="288.828125" y="0" dx="0em" dy="0.95em" style="text-anchor: middle; visibility: hidden; font-family: Roboto, sans-serif; font-size: 12px; font-weight: 200;" fill="rgb(255, 255, 255)" stroke="none" stroke-width="1px">90k</text></g><line x1="0" y1="0" x2="288.828125" y2="0" fill="rgb(0, 0, 0)" stroke="rgb(204, 204, 204)" stroke-width="1px"></line></g></g></g></g></svg>